<svg xmlns="http://www.w3.org/2000/svg" viewBox="0 0 1015.01 342"><defs><style>.cls-1{fill:#fff;}.cls-2{fill:#e5c065;}.cls-3{fill:#9b1515;}.cls-4{fill:#ce9549;}.cls-5{fill:#c18938;}</style></defs><title>athenas-sport-logo-white</title><g id="Camada_2" data-name="Camada 2"><g id="Camada_1-2" data-name="Camada 1"><path class="cls-1" d="M463.67,53.59a32.38,32.38,0,0,1,13.54,13.54Q482,76.07,482,88.76v46.29H462.46V114.74H423.79v20.31H404.45V88.76q0-12.69,4.84-21.63a32.3,32.3,0,0,1,13.53-13.54Q431.52,49,443.25,49T463.67,53.59ZM462.46,99V87q0-10.51-5.19-15.89t-14.14-5.38q-9.08,0-14.2,5.38T423.79,87V99Z"/><path class="cls-1" d="M561.8,74.14A64.89,64.89,0,0,0,538.48,66v69H518.9V66a66,66,0,0,0-23.44,8.1l-6.65-14.63a72.25,72.25,0,0,1,18.85-7.85A82.33,82.33,0,0,1,528.57,49a83.5,83.5,0,0,1,21.09,2.66,70.32,70.32,0,0,1,18.79,7.85Z"/><path class="cls-1" d="M654.86,50.45v84.6H635.28V100.36H596.85v34.69H577.27V50.45h19.58V83.81h38.43V50.45Z"/><path class="cls-1" d="M744.05,127.8a47.43,47.43,0,0,1-15.17,6.4,79.28,79.28,0,0,1-19.4,2.3q-12.81,0-21.75-3.21t-13.53-8.94a20.36,20.36,0,0,1-4.6-13.11,20,20,0,0,1,3.75-12,22.26,22.26,0,0,1,10.27-7.73A19.3,19.3,0,0,1,676,84.29,19.81,19.81,0,0,1,673.23,74a20.55,20.55,0,0,1,4.23-12.57q4.23-5.69,12.81-9.07t21-3.38a78.72,78.72,0,0,1,16.07,1.63A60.06,60.06,0,0,1,741,55l-5.44,15A55.09,55.09,0,0,0,712,64.83q-9.42,0-14.2,2.84c-3.18,1.9-4.77,4.45-4.77,7.68a8,8,0,0,0,3.2,6.82q3.19,2.37,9.73,2.36h23.08V100H704.77q-7.37,0-11.36,2.54a8.21,8.21,0,0,0-4,7.37q0,5.07,5.14,7.92t15.77,2.84a58.13,58.13,0,0,0,15-2A39.87,39.87,0,0,0,738,113.05Z"/><path class="cls-1" d="M823.93,58.49q8.46,9.48,8.46,27v49.55H812.81v-49q0-10.16-4.77-15.29T794.8,65.68q-8.94,0-14.32,5.5t-5.37,16.25v47.62H755.53V50.45h19V60.72A27.84,27.84,0,0,1,785.38,52a36,36,0,0,1,15-3Q815.46,49,823.93,58.49Z"/><path class="cls-1" d="M910.22,53.59a32.3,32.3,0,0,1,13.53,13.54q4.83,8.94,4.84,21.63v46.29H909V114.74H870.34v20.31H851V88.76q0-12.69,4.83-21.63a32.38,32.38,0,0,1,13.54-13.54Q878.07,49,889.79,49T910.22,53.59ZM909,99V87q0-10.51-5.2-15.89t-14.14-5.38q-9.06,0-14.2,5.38T870.34,87V99Z"/><path class="cls-1" d="M956.32,133.78a45.38,45.38,0,0,1-15-7.07L947.92,112a45.16,45.16,0,0,0,12.93,6.41,48.64,48.64,0,0,0,15,2.42q8.34,0,12.33-2.48a7.48,7.48,0,0,0,4-6.59,6.29,6.29,0,0,0-2.35-5,17.94,17.94,0,0,0-6-3.21q-3.68-1.2-10-2.65A138,138,0,0,1,958,96.25a25.63,25.63,0,0,1-10.57-7.37Q943,83.81,943,75.35A23.55,23.55,0,0,1,947,62q4-6,12-9.48T978.62,49a65.47,65.47,0,0,1,15.83,1.93A47,47,0,0,1,1008,56.49l-6,14.87q-11.72-6.64-23.44-6.65-8.22,0-12.15,2.66a8.1,8.1,0,0,0-3.92,7c0,2.9,1.51,5.06,4.53,6.46A70.42,70.42,0,0,0,980.79,85a139.69,139.69,0,0,1,15.84,4.6,26.21,26.21,0,0,1,10.57,7.25q4.41,5,4.41,13.41a23.11,23.11,0,0,1-4.05,13.24A27.23,27.23,0,0,1,995.42,133q-8.1,3.51-19.7,3.51A69.31,69.31,0,0,1,956.32,133.78Z"/><path class="cls-1" d="M421.4,289.12Q408,285.25,399.94,279l9.48-21a64.45,64.45,0,0,0,18.44,9.13,69.16,69.16,0,0,0,21.37,3.45q11.89,0,17.58-3.54t5.69-9.39a9,9,0,0,0-3.36-7.15,25.57,25.57,0,0,0-8.62-4.57q-5.26-1.72-14.22-3.79a196.72,196.72,0,0,1-22.58-6.55,36.8,36.8,0,0,1-15.08-10.51q-6.28-7.24-6.29-19.3A33.61,33.61,0,0,1,408,186.75q5.68-8.52,17.15-13.53t28-5A93.13,93.13,0,0,1,475.77,171a66.9,66.9,0,0,1,19.3,7.93l-8.61,21.2q-16.72-9.48-33.44-9.48-11.72,0-17.32,3.79t-5.6,10q0,6.2,6.46,9.22t19.74,5.94a198.52,198.52,0,0,1,22.57,6.55A37.43,37.43,0,0,1,494,236.47q6.29,7.08,6.29,19.13a32.9,32.9,0,0,1-5.77,18.87Q488.7,283,477.15,288t-28.09,5A98.48,98.48,0,0,1,421.4,289.12Z"/><path class="cls-1" d="M599.42,175.64A41.31,41.31,0,0,1,617.6,190.8q6.38,9.82,6.38,23.27,0,13.27-6.38,23.18a40.54,40.54,0,0,1-18.18,15.16q-11.8,5.26-27.83,5.26h-24.3v33.26H519.37V170.29h52.22Q587.61,170.29,599.42,175.64Zm-10.25,53.85q6.54-5.43,6.55-15.42,0-10.17-6.55-15.6T570,193H547.29v41.88H570Q582.61,234.92,589.17,229.49Z"/><path class="cls-1" d="M670.08,284.9a60,60,0,0,1-23.61-22.32,64.16,64.16,0,0,1,0-63.93,60,60,0,0,1,23.61-22.32,70.4,70.4,0,0,1,33.86-8.1q18.78,0,33.78,8.1a61.53,61.53,0,0,1,0,108.57q-15,8.1-33.78,8.1A70.4,70.4,0,0,1,670.08,284.9Zm53.16-20.59a35.24,35.24,0,0,0,13.53-13.71,43.15,43.15,0,0,0,0-40,35.22,35.22,0,0,0-13.53-13.7,40.39,40.39,0,0,0-38.6,0,35.28,35.28,0,0,0-13.53,13.7,43.15,43.15,0,0,0,0,40,35.31,35.31,0,0,0,13.53,13.71,40.39,40.39,0,0,0,38.6,0Z"/><path class="cls-1" d="M867.84,290.93l-23.27-33.6H818.89v33.6H791V170.29h52.22q16,0,27.83,5.35A41.31,41.31,0,0,1,889.2,190.8q6.38,9.82,6.38,23.27t-6.46,23.18a41,41,0,0,1-18.36,14.91l27.06,38.77Zm-7.07-92.46Q854.21,193,841.64,193H818.89v42.05h22.75q12.57,0,19.13-5.51t6.55-15.51Q867.32,203.9,860.77,198.47Z"/><path class="cls-1" d="M1005.53,204.07a92.58,92.58,0,0,0-33.26-11.54v98.4H944.35v-98.4a94.15,94.15,0,0,0-33.43,11.54l-9.48-20.85A103.09,103.09,0,0,1,928.32,172a117.15,117.15,0,0,1,29.82-3.79A118.75,118.75,0,0,1,988.21,172a100.19,100.19,0,0,1,26.8,11.2Z"/><path class="cls-2" d="M278.49,97.49l-10,14.34a86.81,86.81,0,0,0-42.69-15.5q-3.7-.33-7.5-.33a87.35,87.35,0,0,0-61.87,25.63L144,109.25c1.56-1.55,3.16-3.06,4.81-4.5a105,105,0,0,1,129.24-7.56Z"/><path class="cls-2" d="M290.35,237.71a35.09,35.09,0,0,0,5.64-.45V335L241.7,302.78,211.76,285l-37.9,9.58-.64.16-35,8.85s6.58-6.59,9.58-12.59,4-6.75,4-13.82V277c0-12.39-9-17-15-28s-9.26-22.69-9-35.07a90.33,90.33,0,0,1,78.47-87.19q3.77-.49,7.64-.66a89.81,89.81,0,0,1,11.86.28A88.78,88.78,0,0,1,247.42,131a90.25,90.25,0,0,1,47.32,38.35,89.22,89.22,0,0,1,12.76,39.79c.08,1.05.14,2.1.18,3.16a35,35,0,0,0-46.05,10.41A34.93,34.93,0,0,0,290.35,237.71Z"/><path class="cls-3" d="M362,88.89a85.07,85.07,0,0,0-83.91,8.3,105,105,0,0,0-129.24,7.56,136,136,0,0,0-59.94,63.67c-1.53,3.35-4.2,10.3-4.2,10.31A64.81,64.81,0,0,1,0,208.11a59.06,59.06,0,0,0,38-43.24c.86-4,2.81-14.87,2.81-14.87s7.56-40,17-57.77A173.06,173.06,0,0,1,362,88.89Z"/><path class="cls-4" d="M225.76,96.34v30a89.85,89.85,0,0,0-11.86-.28q-3.87.17-7.64.66V96.85a84.85,84.85,0,0,1,12-.85Q222.06,96,225.76,96.34Z"/><path class="cls-5" d="M307.76,216V342l-1.06-.63-3.28-1.95L299.26,337,296,335V237.26a35.07,35.07,0,0,1-34.36-14.55,35,35,0,0,1,46.05-10.41c0,.55,0,1.1.05,1.66S307.76,215.32,307.76,216Z"/></g></g></svg>